<svg width="343" height="373" fill="none" xmlns="http://www.w3.org/2000/svg"><circle cx="29.4" cy="88.2" r="29.4" fill="#F5D427"/><circle cx="98" cy="58.8" r="29.4" fill="#FFC469"/><circle cx="166.6" cy="29.4" r="29.4" fill="#F5D427"/><circle cx="235.2" cy="58.8" r="29.4" fill="#FFC469"/><circle cx="303.8" cy="39.2" r="29.4" fill="#F5D427"/><rect y="127.4" width="68.6" height="215.6" rx="29.4" fill="#F5D427"/><rect x="68.6" y="98" width="68.6" height="245" rx="29.4" fill="#FFC469"/><rect x="137.2" y="68.6" width="68.6" height="274.4" rx="29.4" fill="#F5D427"/><rect x="205.8" y="98" width="68.6" height="274.4" rx="29.4" fill="#FFC469"/><rect x="274.4" y="78.4" width="68.6" height="264.6" rx="29.4" fill="#F5D427"/><path d="M39.498 217.191c0-.564-.377-.753-1.459-.753-4.422 0-9.69-3.245-9.69-9.125 0-5.457 4.469-8.232 9.455-8.232 1.317 0 1.694-.189 1.694-.753v-4.939c0-1.27-1.318-2.07-3.34-2.07-9.502 0-15.853 6.727-15.853 16.652 0 9.69 6.068 16.229 15.147 16.229 1.411 0 4.046 0 4.046-2.023v-4.986zm14.723-8.702c-.423-.612-.47-.753-.047-.753 1.835 0 6.492-2.117 6.492-7.762 0-5.362-4.234-8.702-10.16-8.702-3.576 0-7.621.564-7.621 1.74 0 .33.282 9.597.282 16.276 0 6.727-.376 12.09-.376 14.3 0 .612.47.612.8.612h5.926c.33 0 .941 0 .941-.612v-5.927c0-.799.094-1.223.33-1.223.188 0 .47.424.846 1.223l2.823 6.116c.094.235.423.423.752.423h6.962c.33 0 .988 0 .988-.612 0-1.364-7.903-13.547-8.938-15.099zm-4.045-11.29c0-.753.141-.847 1.035-.847 2.117 0 3.293.565 3.293 1.976 0 1.788-1.788 3.716-3.764 3.716-.423 0-.564-.094-.564-.376v-4.469zm24.95 27.001c.988 0 1.27 0 1.27-.47v-31.47c0-.988-.188-.988-.8-.988-4.186 0-9.36.941-9.36 2.023v30.435c0 .47.188.47 1.034.47h7.856zm5.993-.659c2.211.283 4.845.612 7.432.612 5.927 0 11.572-1.741 11.572-9.831 0-11.008-10.49-8.185-10.49-13.454 0-1.976 1.506-3.152 4.892-3.152 1.082 0 2.352.095 3.858.377 1.834.329 1.834-.282 1.834-1.553v-2.869c0-1.552-.376-1.788-1.975-2.07-1.318-.235-2.776-.329-4.234-.329-6.492 0-13.594 2.399-13.594 9.643 0 9.22 11.43 6.539 11.43 11.337 0 4.186-8.75 2.728-11.336 3.199-.706.141-1.035.423-1.035 2.069v3.999c0 1.552.329 1.834 1.646 2.022zm31.033.659c.987 0 1.27 0 1.27-.47v-31.47c0-.988-.189-.988-.8-.988-4.187 0-9.361.941-9.361 2.023v30.435c0 .47.188.47 1.035.47h7.856zm5.993-.659c2.211.283 4.845.612 7.432.612 5.927 0 11.572-1.741 11.572-9.831 0-11.008-10.49-8.185-10.49-13.454 0-1.976 1.505-3.152 4.892-3.152 1.082 0 2.352.095 3.857.377 1.835.329 1.835-.282 1.835-1.553v-2.869c0-1.552-.376-1.788-1.976-2.07-1.317-.235-2.775-.329-4.233-.329-6.492 0-13.595 2.399-13.595 9.643 0 9.22 11.431 6.539 11.431 11.337 0 4.186-8.75 2.728-11.337 3.199-.705.141-1.035.423-1.035 2.069v3.999c0 1.552.33 1.834 1.647 2.022zm51.907-6.35c0-.564-.376-.753-1.458-.753-4.422 0-9.691-3.245-9.691-9.125 0-5.457 4.469-8.232 9.455-8.232 1.318 0 1.694-.189 1.694-.753v-4.939c0-1.27-1.317-2.07-3.34-2.07-9.502 0-15.852 6.727-15.852 16.652 0 9.69 6.068 16.229 15.146 16.229 1.412 0 4.046 0 4.046-2.023v-4.986zm12.923-26.483c-7.573 0-11.054 4.798-11.054 16.322 0 12.513 3.387 17.782 11.948 17.782 7.95 0 11.149-4.516 11.149-17.735 0-10.819-3.952-16.369-12.043-16.369zm-3.198 15.382c0-5.645.282-8.091 3.575-8.091 3.245 0 3.81 2.446 3.81 8.42 0 9.173-.565 10.537-3.481 10.537-3.246 0-3.904-1.694-3.904-10.866zm39.914-14.818h-5.315c-.612 0-.941.235-.941 1.035 0 4.798-.376 15.429-.612 15.429-.282 0-9.314-15.853-9.455-16.135-.141-.235-.47-.329-.752-.329-1.223 0-4.751 1.693-4.751 2.352v29.964c0 .377.235.612.752.612h5.645c.471 0 .706-.141.706-.941 0-3.01 0-11.431.188-11.431.235 0 8.279 11.196 8.467 11.478.565.847.706.894 1.27.894h4.892c.565 0 .753-.141.753-.894v-30.999c0-.706-.141-1.035-.847-1.035zm25.036 0h-5.315c-.612 0-.941.235-.941 1.035 0 4.798-.376 15.429-.612 15.429-.282 0-9.314-15.853-9.455-16.135-.141-.235-.47-.329-.752-.329-1.223 0-4.751 1.693-4.751 2.352v29.964c0 .377.235.612.752.612h5.645c.47 0 .706-.141.706-.941 0-3.01 0-11.431.188-11.431.235 0 8.279 11.196 8.467 11.478.564.847.706.894 1.27.894h4.892c.565 0 .753-.141.753-.894v-30.999c0-.706-.141-1.035-.847-1.035zm12.335 25.26c-.517 0-.752-.188-.752-.658v-5.739c0-.188.047-.376.235-.376h4.045c.33 0 .518-.235.518-.706v-4.375c0-.564-.471-.94-1.129-.94h-3.293v-3.67c0-.282.047-.658.329-.658h10.349a.594.594 0 0 0 .612-.612v-4.704c0-1.881-.8-2.022-1.082-2.069-4.046-.753-10.961-.753-11.713-.753-1.929 0-6.774.988-6.774 2.07v29.635c0 .517 0 1.223.659 1.223h16.558c.893 0 1.223-.517 1.364-2.258l.329-4.092c.094-1.318-2.258-1.318-4.234-1.318h-6.021zm31.049.659c0-.564-.376-.753-1.458-.753-4.422 0-9.69-3.245-9.69-9.125 0-5.457 4.469-8.232 9.455-8.232 1.317 0 1.693-.189 1.693-.753v-4.939c0-1.27-1.317-2.07-3.34-2.07-9.502 0-15.852 6.727-15.852 16.652 0 9.69 6.068 16.229 15.147 16.229 1.411 0 4.045 0 4.045-2.023v-4.986zm4.799-25.919c-.988 0-1.506.659-1.506 1.929v4.327c0 1.788.047 2.54 1.694 2.54h8.185c.658 0 .705.236.705.612 0 8.091-.282 15.194-.705 22.861-.047.612.376.659.941.659h7.667c.565 0 .988 0 .941-.659-.376-7.667-.706-14.77-.706-22.861 0-.423.047-.612.612-.612h7.997c1.646 0 1.975-.423 1.975-2.399v-4.374c0-1.176-.658-2.023-1.599-2.023H292.91z" fill="#000"/></svg>