<svg width="35" height="38" viewBox="0 0 35 38" fill="none" xmlns="http://www.w3.org/2000/svg">
<circle cx="3" cy="9" r="3" fill="#F5D427"/>
<circle cx="10" cy="6" r="3" fill="#FFC469"/>
<circle cx="17" cy="3" r="3" fill="#F5D427"/>
<circle cx="24" cy="6" r="3" fill="#FFC469"/>
<circle cx="31" cy="4" r="3" fill="#F5D427"/>
<rect y="13" width="7" height="22" rx="3" fill="#F5D427"/>
<rect x="7" y="10" width="7" height="25" rx="3" fill="#FFC469"/>
<rect x="14" y="7" width="7" height="28" rx="3" fill="#F5D427"/>
<rect x="21" y="10" width="7" height="28" rx="3" fill="#FFC469"/>
<rect x="28" y="8" width="7" height="27" rx="3" fill="#F5D427"/>
<path d="M4.0304 22.2848C4.0304 22.2272 3.992 22.208 3.8816 22.208C3.4304 22.208 2.8928 21.8768 2.8928 21.2768C2.8928 20.72 3.3488 20.4368 3.8576 20.4368C3.992 20.4368 4.0304 20.4176 4.0304 20.36V19.856C4.0304 19.7264 3.896 19.6448 3.6896 19.6448C2.72 19.6448 2.072 20.3312 2.072 21.344C2.072 22.3328 2.6912 23 3.6176 23C3.7616 23 4.0304 23 4.0304 22.7936V22.2848ZM5.53284 21.3968C5.48964 21.3344 5.48484 21.32 5.52804 21.32C5.71524 21.32 6.19044 21.104 6.19044 20.528C6.19044 19.9808 5.75844 19.64 5.15364 19.64C4.78884 19.64 4.37604 19.6976 4.37604 19.8176C4.37604 19.8512 4.40484 20.7968 4.40484 21.4784C4.40484 22.1648 4.36644 22.712 4.36644 22.9376C4.36644 23 4.41444 23 4.44804 23H5.05284C5.08644 23 5.14884 23 5.14884 22.9376V22.3328C5.14884 22.2512 5.15844 22.208 5.18244 22.208C5.20164 22.208 5.23044 22.2512 5.26884 22.3328L5.55684 22.9568C5.56644 22.9808 5.60004 23 5.63364 23H6.34404C6.37764 23 6.44484 23 6.44484 22.9376C6.44484 22.7984 5.63844 21.5552 5.53284 21.3968ZM5.12004 20.2448C5.12004 20.168 5.13444 20.1584 5.22564 20.1584C5.44164 20.1584 5.56164 20.216 5.56164 20.36C5.56164 20.5424 5.37924 20.7392 5.17764 20.7392C5.13444 20.7392 5.12004 20.7296 5.12004 20.7008V20.2448ZM7.66595 23C7.76675 23 7.79555 23 7.79555 22.952V19.7408C7.79555 19.64 7.77635 19.64 7.71395 19.64C7.28675 19.64 6.75875 19.736 6.75875 19.8464V22.952C6.75875 23 6.77795 23 6.86435 23H7.66595ZM8.2775 22.9328C8.5031 22.9616 8.7719 22.9952 9.0359 22.9952C9.6407 22.9952 10.2167 22.8176 10.2167 21.992C10.2167 20.8688 9.1463 21.1568 9.1463 20.6192C9.1463 20.4176 9.2999 20.2976 9.6455 20.2976C9.7559 20.2976 9.8855 20.3072 10.0391 20.336C10.2263 20.3696 10.2263 20.3072 10.2263 20.1776V19.8848C10.2263 19.7264 10.1879 19.7024 10.0247 19.6736C9.8903 19.6496 9.7415 19.64 9.5927 19.64C8.9303 19.64 8.2055 19.8848 8.2055 20.624C8.2055 21.5648 9.3719 21.2912 9.3719 21.7808C9.3719 22.208 8.4791 22.0592 8.2151 22.1072C8.1431 22.1216 8.1095 22.1504 8.1095 22.3184V22.7264C8.1095 22.8848 8.1431 22.9136 8.2775 22.9328ZM11.4441 23C11.5449 23 11.5737 23 11.5737 22.952V19.7408C11.5737 19.64 11.5545 19.64 11.4921 19.64C11.0649 19.64 10.5369 19.736 10.5369 19.8464V22.952C10.5369 23 10.5561 23 10.6425 23H11.4441ZM12.0556 22.9328C12.2812 22.9616 12.55 22.9952 12.814 22.9952C13.4188 22.9952 13.9948 22.8176 13.9948 21.992C13.9948 20.8688 12.9244 21.1568 12.9244 20.6192C12.9244 20.4176 13.078 20.2976 13.4236 20.2976C13.534 20.2976 13.6636 20.3072 13.8172 20.336C14.0044 20.3696 14.0044 20.3072 14.0044 20.1776V19.8848C14.0044 19.7264 13.966 19.7024 13.8028 19.6736C13.6684 19.6496 13.5196 19.64 13.3708 19.64C12.7084 19.64 11.9836 19.8848 11.9836 20.624C11.9836 21.5648 13.15 21.2912 13.15 21.7808C13.15 22.208 12.2572 22.0592 11.9932 22.1072C11.9212 22.1216 11.8876 22.1504 11.8876 22.3184V22.7264C11.8876 22.8848 11.9212 22.9136 12.0556 22.9328ZM17.3523 22.2848C17.3523 22.2272 17.3139 22.208 17.2035 22.208C16.7523 22.208 16.2147 21.8768 16.2147 21.2768C16.2147 20.72 16.6707 20.4368 17.1795 20.4368C17.3139 20.4368 17.3523 20.4176 17.3523 20.36V19.856C17.3523 19.7264 17.2179 19.6448 17.0115 19.6448C16.0419 19.6448 15.3939 20.3312 15.3939 21.344C15.3939 22.3328 16.0131 23 16.9395 23C17.0835 23 17.3523 23 17.3523 22.7936V22.2848ZM18.671 19.5824C17.8982 19.5824 17.543 20.072 17.543 21.248C17.543 22.5248 17.8886 23.0624 18.7622 23.0624C19.5734 23.0624 19.8998 22.6016 19.8998 21.2528C19.8998 20.1488 19.4966 19.5824 18.671 19.5824ZM18.3446 21.152C18.3446 20.576 18.3734 20.3264 18.7094 20.3264C19.0406 20.3264 19.0982 20.576 19.0982 21.1856C19.0982 22.1216 19.0406 22.2608 18.743 22.2608C18.4118 22.2608 18.3446 22.088 18.3446 21.152ZM22.4175 19.64H21.8751C21.8127 19.64 21.7791 19.664 21.7791 19.7456C21.7791 20.2352 21.7407 21.32 21.7167 21.32C21.6879 21.32 20.7663 19.7024 20.7519 19.6736C20.7375 19.6496 20.7039 19.64 20.6751 19.64C20.5503 19.64 20.1903 19.8128 20.1903 19.88V22.9376C20.1903 22.976 20.2143 23 20.2671 23H20.8431C20.8911 23 20.9151 22.9856 20.9151 22.904C20.9151 22.5968 20.9151 21.7376 20.9343 21.7376C20.9583 21.7376 21.7791 22.88 21.7983 22.9088C21.8559 22.9952 21.8703 23 21.9279 23H22.4271C22.4847 23 22.5039 22.9856 22.5039 22.9088V19.7456C22.5039 19.6736 22.4895 19.64 22.4175 19.64ZM24.9722 19.64H24.4298C24.3674 19.64 24.3338 19.664 24.3338 19.7456C24.3338 20.2352 24.2954 21.32 24.2714 21.32C24.2426 21.32 23.321 19.7024 23.3066 19.6736C23.2922 19.6496 23.2586 19.64 23.2298 19.64C23.105 19.64 22.745 19.8128 22.745 19.88V22.9376C22.745 22.976 22.769 23 22.8218 23H23.3978C23.4458 23 23.4698 22.9856 23.4698 22.904C23.4698 22.5968 23.4698 21.7376 23.489 21.7376C23.513 21.7376 24.3338 22.88 24.353 22.9088C24.4106 22.9952 24.425 23 24.4826 23H24.9818C25.0394 23 25.0586 22.9856 25.0586 22.9088V19.7456C25.0586 19.6736 25.0442 19.64 24.9722 19.64ZM26.2309 22.2176C26.1781 22.2176 26.1541 22.1984 26.1541 22.1504V21.5648C26.1541 21.5456 26.1589 21.5264 26.1781 21.5264H26.5909C26.6245 21.5264 26.6437 21.5024 26.6437 21.4544V21.008C26.6437 20.9504 26.5957 20.912 26.5285 20.912H26.1925V20.5376C26.1925 20.5088 26.1973 20.4704 26.2261 20.4704H27.2821C27.3205 20.4704 27.3445 20.4416 27.3445 20.408V19.928C27.3445 19.736 27.2629 19.7216 27.2341 19.7168C26.8213 19.64 26.1157 19.64 26.0389 19.64C25.8421 19.64 25.3477 19.7408 25.3477 19.8512V22.8752C25.3477 22.928 25.3477 23 25.4149 23H27.1045C27.1957 23 27.2293 22.9472 27.2437 22.7696L27.2773 22.352C27.2869 22.2176 27.0469 22.2176 26.8453 22.2176H26.2309ZM29.3992 22.2848C29.3992 22.2272 29.3608 22.208 29.2504 22.208C28.7992 22.208 28.2616 21.8768 28.2616 21.2768C28.2616 20.72 28.7176 20.4368 29.2264 20.4368C29.3608 20.4368 29.3992 20.4176 29.3992 20.36V19.856C29.3992 19.7264 29.2648 19.6448 29.0584 19.6448C28.0888 19.6448 27.4408 20.3312 27.4408 21.344C27.4408 22.3328 28.06 23 28.9864 23C29.1304 23 29.3992 23 29.3992 22.7936V22.2848ZM29.8888 19.64C29.788 19.64 29.7352 19.7072 29.7352 19.8368V20.2784C29.7352 20.4608 29.74 20.5376 29.908 20.5376H30.7432C30.8104 20.5376 30.8152 20.5616 30.8152 20.6C30.8152 21.4256 30.7864 22.1504 30.7432 22.9328C30.7384 22.9952 30.7816 23 30.8392 23H31.6216C31.6792 23 31.7224 23 31.7176 22.9328C31.6792 22.1504 31.6456 21.4256 31.6456 20.6C31.6456 20.5568 31.6504 20.5376 31.708 20.5376H32.524C32.692 20.5376 32.7256 20.4944 32.7256 20.2928V19.8464C32.7256 19.7264 32.6584 19.64 32.5624 19.64H29.8888Z" fill="black"/>
</svg>
